<svg xmlns="http://www.w3.org/2000/svg" xmlns:xlink="http://www.w3.org/1999/xlink" style="margin:auto;background:#151E2A;display:block;z-index:1;position:relative" width="1239" height="690" preserveAspectRatio="xMidYMid" viewBox="0 0 1239 690">
    <g transform="translate(619.5,345) scale(1,1) translate(-619.5,-345)"><path id="path0" d="M 649.6390203720244 371.17572348084883
c 0 37.010629122568865 -9.055792232117913 10.630712620312334 -19.686504852430247 10.630712620312334
S 610.2660106671639 408.1863526034177 610.2660106671639 371.17572348084883
s 9.055792232117913 -10.630712620312334 19.686504852430247 -10.630712620312334
S 649.6390203720244 334.16509435828 649.6390203720244 371.17572348084883
z" fill="none" stroke="none"></path>
        <circle cx="0" cy="0" r="7.384027046159407" fill="#d9dbee" opacity="0.9">
            <animateMotion begin="-4.5832413369449405s" dur="10s" repeatCount="indefinite">
                <mpath xlink:href="#path0"></mpath>
            </animateMotion>
        </circle><path id="path1" d="M 638.7315419547697 92.11316270900397
c 0 20.386952552381096 -4.988296901114523 5.855826796960527 -10.84412369807505 5.855826796960527
S 617.0432945586197 112.50011526138508 617.0432945586197 92.11316270900397
s 4.988296901114523 -5.855826796960527 10.84412369807505 -5.855826796960527
S 638.7315419547697 71.72621015662287 638.7315419547697 92.11316270900397
z" fill="none" stroke="none"></path>
        <circle cx="0" cy="0" r="5.827750779709641" fill="#b3b7e2" opacity="0.9">
            <animateMotion begin="-6.590731188601149s" dur="10s" repeatCount="indefinite">
                <mpath xlink:href="#path1"></mpath>
            </animateMotion>
        </circle><path id="path2" d="M 129.7780981431086 124.42396294229088
c 0 29.621400538051525 -7.247789493353032 8.508274622631822 -15.756064115984854 8.508274622631822
S 98.26596991113888 154.04536348034242 98.26596991113888 124.42396294229088
s 7.247789493353032 -8.508274622631822 15.756064115984854 -8.508274622631822
S 129.7780981431086 94.80256240423935 129.7780981431086 124.42396294229088
z" fill="none" stroke="none"></path>
        <circle cx="0" cy="0" r="4.670112024090324" fill="#3b4368" opacity="0.9">
            <animateMotion begin="-5.937572288351507s" dur="10s" repeatCount="indefinite">
                <mpath xlink:href="#path2"></mpath>
            </animateMotion>
        </circle><path id="path3" d="M 467.229760196411 553.0728625478968
c 0 31.63129315677297 -7.739571729848704 9.085584204605002 -16.825155934453704 9.085584204605002
S 433.57944832750366 584.7041557046697 433.57944832750366 553.0728625478968
s 7.739571729848704 -9.085584204605002 16.825155934453704 -9.085584204605002
S 467.229760196411 521.4415693911238 467.229760196411 553.0728625478968
z" fill="none" stroke="none"></path>
        <circle cx="0" cy="0" r="7.468383687424492" fill="#b3b7e2" opacity="0.9">
            <animateMotion begin="-5.396254176193452s" dur="10s" repeatCount="indefinite">
                <mpath xlink:href="#path3"></mpath>
            </animateMotion>
        </circle><path id="path4" d="M 1156.6514758914577 20.02855162933085
c 0 22.748682220604945 -5.56616692631823 6.534195956982272 -12.100362883300502 6.534195956982272
S 1132.4507501248568 42.7772338499358 1132.4507501248568 20.02855162933085
s 5.56616692631823 -6.534195956982272 12.100362883300502 -6.534195956982272
S 1156.6514758914577 -2.7201305912740956 1156.6514758914577 20.02855162933085
z" fill="none" stroke="none"></path>
        <circle cx="0" cy="0" r="4.556219782332024" fill="#5e6fa3" opacity="0.9">
            <animateMotion begin="-4.129918222923699s" dur="10s" repeatCount="indefinite">
                <mpath xlink:href="#path4"></mpath>
            </animateMotion>
        </circle><path id="path5" d="M 300.2991132622935 468.6618590882886
c 0 22.488995543423155 -5.502626569135452 6.4596051028981405 -11.962231672033592 6.4596051028981405
S 276.37464991822634 491.15085463171175 276.37464991822634 468.6618590882886
s 5.502626569135452 -6.4596051028981405 11.962231672033592 -6.4596051028981405
S 300.2991132622935 446.1728635448655 300.2991132622935 468.6618590882886
z" fill="none" stroke="none"></path>
        <circle cx="0" cy="0" r="5.7087145192675095" fill="#93dbe9" opacity="0.9">
            <animateMotion begin="-0.6625372386909945s" dur="10s" repeatCount="indefinite">
                <mpath xlink:href="#path5"></mpath>
            </animateMotion>
        </circle><path id="path6" d="M 1011.0271478837096 345.9065245305649
c 0 36.09696779084254 -8.832236799887003 10.368277982476048 -19.20051478236305 10.368277982476048
S 972.6261183189836 382.00349232140746 972.6261183189836 345.9065245305649
s 8.832236799887003 -10.368277982476048 19.20051478236305 -10.368277982476048
S 1011.0271478837096 309.8095567397224 1011.0271478837096 345.9065245305649
z" fill="none" stroke="none"></path>
        <circle cx="0" cy="0" r="4.981518307312912" fill="#93dbe9" opacity="0.9">
            <animateMotion begin="-8.524418584480351s" dur="10s" repeatCount="indefinite">
                <mpath xlink:href="#path6"></mpath>
            </animateMotion>
        </circle><path id="path7" d="M 168.527104716572 321.9714222358265
c 0 32.93897591804045 -8.05953666079713 9.46119521050098 -17.52073187129811 9.46119521050098
S 133.48564097397576 354.91039815386694 133.48564097397576 321.9714222358265
s 8.05953666079713 -9.46119521050098 17.52073187129811 -9.46119521050098
S 168.527104716572 289.032446317786 168.527104716572 321.9714222358265
z" fill="none" stroke="none"></path>
        <circle cx="0" cy="0" r="6.744772563275861" fill="#d9dbee" opacity="0.9">
            <animateMotion begin="-1.2943521527841284s" dur="10s" repeatCount="indefinite">
                <mpath xlink:href="#path7"></mpath>
            </animateMotion>
        </circle><path id="path8" d="M 801.5891891101284 420.30037648462053
c 0 37.12844713477785 -9.084620043615855 10.664553964244702 -19.749174007860557 10.664553964244702
S 762.0908410944072 457.4288236193984 762.0908410944072 420.30037648462053
s 9.084620043615855 -10.664553964244702 19.749174007860557 -10.664553964244702
S 801.5891891101284 383.1719293498427 801.5891891101284 420.30037648462053
z" fill="none" stroke="none"></path>
        <circle cx="0" cy="0" r="7.124312761498116" fill="#689cc5" opacity="0.9">
            <animateMotion begin="-2.2538960206146985s" dur="10s" repeatCount="indefinite">
                <mpath xlink:href="#path8"></mpath>
            </animateMotion>
        </circle><path id="path9" d="M 1139.0377891633425 668.5965276818002
c 0 25.21087626271624 -6.168618660026313 7.2414219052482816 -13.410040565274596 7.2414219052482816
S 1112.2177080327933 693.8074039445165 1112.2177080327933 668.5965276818002
s 6.168618660026313 -7.2414219052482816 13.410040565274596 -7.2414219052482816
S 1139.0377891633425 643.385651419084 1139.0377891633425 668.5965276818002
z" fill="none" stroke="none"></path>
        <circle cx="0" cy="0" r="7.340227611622994" fill="#d9dbee" opacity="0.9">
            <animateMotion begin="-8.615138306983859s" dur="10s" repeatCount="indefinite">
                <mpath xlink:href="#path9"></mpath>
            </animateMotion>
        </circle><path id="path10" d="M 89.90763933239487 471.57813221384214
c 0 25.696071822487394 -6.28733672252351 7.380786587310209 -13.66812330983372 7.380786587310209
S 62.57139271272743 497.27420403632954 62.57139271272743 471.57813221384214
s 6.28733672252351 -7.380786587310209 13.66812330983372 -7.380786587310209
S 89.90763933239487 445.88206039135474 89.90763933239487 471.57813221384214
z" fill="none" stroke="none"></path>
        <circle cx="0" cy="0" r="7.477064775878037" fill="#191d3a" opacity="0.9">
            <animateMotion begin="-0.8081503716159588s" dur="10s" repeatCount="indefinite">
                <mpath xlink:href="#path10"></mpath>
            </animateMotion>
        </circle><path id="path11" d="M 671.5504599374707 105.26497744854572
c 0 32.51408793382263 -7.95557470721192 9.33915291716182 -17.294727624373742 9.33915291716182
S 636.9610046887232 137.77906538236834 636.9610046887232 105.26497744854572
s 7.95557470721192 -9.33915291716182 17.294727624373742 -9.33915291716182
S 671.5504599374707 72.7508895147231 671.5504599374707 105.26497744854572
z" fill="none" stroke="none"></path>
        <circle cx="0" cy="0" r="5.231464149050559" fill="#5e6fa3" opacity="0.9">
            <animateMotion begin="-8.272570899393322s" dur="10s" repeatCount="indefinite">
                <mpath xlink:href="#path11"></mpath>
            </animateMotion>
        </circle><path id="path12" d="M 446.99728764780724 246.70931321556472
c 0 34.520327887224475 -8.446463206448541 9.915413329309159 -18.3618765357577 9.915413329309159
S 410.27353457629187 281.2296411027892 410.27353457629187 246.70931321556472
s 8.446463206448541 -9.915413329309159 18.3618765357577 -9.915413329309159
S 446.99728764780724 212.18898532834024 446.99728764780724 246.70931321556472
z" fill="none" stroke="none"></path>
        <circle cx="0" cy="0" r="5.1553552575105535" fill="#b3b7e2" opacity="0.9">
            <animateMotion begin="-2.6792314944029427s" dur="10s" repeatCount="indefinite">
                <mpath xlink:href="#path12"></mpath>
            </animateMotion>
        </circle><path id="path13" d="M 122.15904033326412 667.865852211397
c 0 27.289689910169454 -6.67726455248827 7.838527952921014 -14.515792505409284 7.838527952921014
S 93.12745532244556 695.1555421215666 93.12745532244556 667.865852211397
s 6.67726455248827 -7.838527952921014 14.515792505409284 -7.838527952921014
S 122.15904033326412 640.5761623012276 122.15904033326412 667.865852211397
z" fill="none" stroke="none"></path>
        <circle cx="0" cy="0" r="5.825822951230115" fill="#3b4368" opacity="0.9">
            <animateMotion begin="-3.0510075529971425s" dur="10s" repeatCount="indefinite">
                <mpath xlink:href="#path13"></mpath>
            </animateMotion>
        </circle><path id="path14" d="M 193.3966124137994 281.9795782313642
c 0 24.136030230175972 -5.905624418021779 6.932689534199481 -12.838313952221261 6.932689534199481
S 167.7199845093569 306.11560846154015 167.7199845093569 281.9795782313642
s 5.905624418021779 -6.932689534199481 12.838313952221261 -6.932689534199481
S 193.3966124137994 257.84354800118825 193.3966124137994 281.9795782313642
z" fill="none" stroke="none"></path>
        <circle cx="0" cy="0" r="5.264865545036022" fill="#5e6fa3" opacity="0.9">
            <animateMotion begin="-4.598598747973897s" dur="10s" repeatCount="indefinite">
                <mpath xlink:href="#path14"></mpath>
            </animateMotion>
        </circle><path id="path15" d="M 324.13457346299145 50.0453107116781
c 0 33.619697219407946 -8.226096128153007 9.656721541744835 -17.88281766989784 9.656721541744835
S 288.36893812319573 83.66500793108605 288.36893812319573 50.0453107116781
s 8.226096128153007 -9.656721541744835 17.88281766989784 -9.656721541744835
S 324.13457346299145 16.425613492270152 324.13457346299145 50.0453107116781
z" fill="none" stroke="none"></path>
        <circle cx="0" cy="0" r="4.736422558546013" fill="#93dbe9" opacity="0.9">
            <animateMotion begin="-1.7991542898196622s" dur="10s" repeatCount="indefinite">
                <mpath xlink:href="#path15"></mpath>
            </animateMotion>
        </circle><path id="path16" d="M 198.4782781343547 443.49073015290935
c 0 23.778545114275644 -5.818154655620636 6.830007639206834 -12.64816229482747 6.830007639206834
S 173.18195354469975 467.269275267185 173.18195354469975 443.49073015290935
s 5.818154655620636 -6.830007639206834 12.64816229482747 -6.830007639206834
S 198.4782781343547 419.7121850386337 198.4782781343547 443.49073015290935
z" fill="none" stroke="none"></path>
        <circle cx="0" cy="0" r="5.699750725305946" fill="#93dbe9" opacity="0.9">
            <animateMotion begin="-7.847847083184137s" dur="10s" repeatCount="indefinite">
                <mpath xlink:href="#path16"></mpath>
            </animateMotion>
        </circle><path id="path17" d="M 740.8766889403564 313.6549617693706
c 0 18.865032344104932 -4.61591216930227 5.41867950309397 -10.03459167239624 5.41867950309397
S 720.807505595564 332.5199941134755 720.807505595564 313.6549617693706
s 4.61591216930227 -5.41867950309397 10.03459167239624 -5.41867950309397
S 740.8766889403564 294.78992942526565 740.8766889403564 313.6549617693706
z" fill="none" stroke="none"></path>
        <circle cx="0" cy="0" r="7.5393450873183285" fill="#d9dbee" opacity="0.9">
            <animateMotion begin="-1.3713380708748235s" dur="10s" repeatCount="indefinite">
                <mpath xlink:href="#path17"></mpath>
            </animateMotion>
        </circle><path id="path18" d="M 1005.8667126565722 40.23369516103877
c 0 28.696899928731952 -7.02158189745569 8.242726575274071 -15.264308472729763 8.242726575274071
S 975.3380957111126 68.93059508977072 975.3380957111126 40.23369516103877
s 7.02158189745569 -8.242726575274071 15.264308472729763 -8.242726575274071
S 1005.8667126565722 11.536795232306815 1005.8667126565722 40.23369516103877
z" fill="none" stroke="none"></path>
        <circle cx="0" cy="0" r="6.250530798036428" fill="#3b4368" opacity="0.9">
            <animateMotion begin="-0.23054929574835015s" dur="10s" repeatCount="indefinite">
                <mpath xlink:href="#path18"></mpath>
            </animateMotion>
        </circle><path id="path19" d="M 623.4837828141668 278.7958740981483
c 0 32.17014103949497 -7.871417488387067 9.24035966028047 -17.11177714866754 9.24035966028047
S 589.2602285168317 310.9660151376433 589.2602285168317 278.7958740981483
s 7.871417488387067 -9.24035966028047 17.11177714866754 -9.24035966028047
S 623.4837828141668 246.62573305865334 623.4837828141668 278.7958740981483
z" fill="none" stroke="none"></path>
        <circle cx="0" cy="0" r="5.599652006904396" fill="#b3b7e2" opacity="0.9">
            <animateMotion begin="-2.986393376356511s" dur="10s" repeatCount="indefinite">
                <mpath xlink:href="#path19"></mpath>
            </animateMotion>
        </circle><path id="path20" d="M 364.89875312009883 192.54442006080848
c 0 27.386914130925767 -6.7010534575669425 7.866454058882933 -14.567507516449876 7.866454058882933
S 335.76373808719904 219.93133419173424 335.76373808719904 192.54442006080848
s 6.7010534575669425 -7.866454058882933 14.567507516449876 -7.866454058882933
S 364.89875312009883 165.15750592988272 364.89875312009883 192.54442006080848
z" fill="none" stroke="none"></path>
        <circle cx="0" cy="0" r="5.83942802382425" fill="#93dbe9" opacity="0.9">
            <animateMotion begin="-4.984373441914148s" dur="10s" repeatCount="indefinite">
                <mpath xlink:href="#path20"></mpath>
            </animateMotion>
        </circle><path id="path21" d="M 237.80138036627204 586.8593630472307
c 0 24.326691429251877 -5.9522755624765225 6.987453921168092 -12.939729483644616 6.987453921168092
S 211.92192139898282 611.1860544764826 211.92192139898282 586.8593630472307
s 5.9522755624765225 -6.987453921168092 12.939729483644616 -6.987453921168092
S 237.80138036627204 562.5326716179787 237.80138036627204 586.8593630472307
z" fill="none" stroke="none"></path>
        <circle cx="0" cy="0" r="4.24981424628585" fill="#191d3a" opacity="0.9">
            <animateMotion begin="-1.6439483927788445s" dur="10s" repeatCount="indefinite">
                <mpath xlink:href="#path21"></mpath>
            </animateMotion>
        </circle><path id="path22" d="M 1091.0513906146425 286.332707299915
c 0 32.18094056457052 -7.874059925373636 9.243461651525575 -17.11752157689921 9.243461651525575
S 1056.816347460844 318.5136478644855 1056.816347460844 286.332707299915
s 7.874059925373636 -9.243461651525575 17.11752157689921 -9.243461651525575
S 1091.0513906146425 254.1517667353445 1091.0513906146425 286.332707299915
z" fill="none" stroke="none"></path>
        <circle cx="0" cy="0" r="6.822455073064856" fill="#b3b7e2" opacity="0.9">
            <animateMotion begin="-5.6899060615065995s" dur="10s" repeatCount="indefinite">
                <mpath xlink:href="#path22"></mpath>
            </animateMotion>
        </circle><path id="path23" d="M 619.2873722152201 426.4273675530627
c 0 24.632178350120586 -6.027022362263547 7.075200164396339 -13.102222526659887 7.075200164396339
S 593.0829271619004 451.0595459031833 593.0829271619004 426.4273675530627
s 6.027022362263547 -7.075200164396339 13.102222526659887 -7.075200164396339
S 619.2873722152201 401.79518920294214 619.2873722152201 426.4273675530627
z" fill="none" stroke="none"></path>
        <circle cx="0" cy="0" r="5.4605188756337775" fill="#5e6fa3" opacity="0.9">
            <animateMotion begin="-8.011877753632739s" dur="10s" repeatCount="indefinite">
                <mpath xlink:href="#path23"></mpath>
            </animateMotion>
        </circle><path id="path24" d="M 760.2953888470854 313.80078874721863
c 0 23.556013028085918 -5.763705315382723 6.766088848492764 -12.529794163875486 6.766088848492764
S 735.2358005193344 337.3568017753046 735.2358005193344 313.80078874721863
s 5.763705315382723 -6.766088848492764 12.529794163875486 -6.766088848492764
S 760.2953888470854 290.2447757191327 760.2953888470854 313.80078874721863
z" fill="none" stroke="none"></path>
        <circle cx="0" cy="0" r="5.9962699040809335" fill="#5e6fa3" opacity="0.9">
            <animateMotion begin="-2.0859120581886703s" dur="10s" repeatCount="indefinite">
                <mpath xlink:href="#path24"></mpath>
            </animateMotion>
        </circle><path id="path25" d="M 318.8798511220833 655.737023146645
c 0 25.767080419660342 -6.304711166512637 7.401182673732226 -13.705893840244862 7.401182673732226
S 291.4680634415936 681.5041035663054 291.4680634415936 655.737023146645
s 6.304711166512637 -7.401182673732226 13.705893840244862 -7.401182673732226
S 318.8798511220833 629.9699427269846 318.8798511220833 655.737023146645
z" fill="none" stroke="none"></path>
        <circle cx="0" cy="0" r="5.100475946333961" fill="#93dbe9" opacity="0.9">
            <animateMotion begin="-4.282837687699004s" dur="10s" repeatCount="indefinite">
                <mpath xlink:href="#path25"></mpath>
            </animateMotion>
        </circle><path id="path26" d="M 524.3594822408356 638.3706867078919
c 0 24.258209306501964 -5.9355192983994165 6.967783524208011 -12.903302822607428 6.967783524208011
S 498.55287659562083 662.6288960143938 498.55287659562083 638.3706867078919
s 5.9355192983994165 -6.967783524208011 12.903302822607428 -6.967783524208011
S 524.3594822408356 614.1124774013899 524.3594822408356 638.3706867078919
z" fill="none" stroke="none"></path>
        <circle cx="0" cy="0" r="7.355744677015534" fill="#3b4368" opacity="0.9">
            <animateMotion begin="-8.55149212548705s" dur="10s" repeatCount="indefinite">
                <mpath xlink:href="#path26"></mpath>
            </animateMotion>
        </circle><path id="path27" d="M 690.6185625109936 547.2788275395769
c 0 23.995058714309266 -5.871131387543755 6.892197715812236 -12.763329103355991 6.892197715812236
S 665.0919043042816 571.2738862538862 665.0919043042816 547.2788275395769
s 5.871131387543755 -6.892197715812236 12.763329103355991 -6.892197715812236
S 690.6185625109936 523.2837688252677 690.6185625109936 547.2788275395769
z" fill="none" stroke="none"></path>
        <circle cx="0" cy="0" r="5.2632247947585125" fill="#b3b7e2" opacity="0.9">
            <animateMotion begin="-7.870178862453665s" dur="10s" repeatCount="indefinite">
                <mpath xlink:href="#path27"></mpath>
            </animateMotion>
        </circle><path id="path28" d="M 704.4365185109864 298.70002117940925
c 0 37.55500502027177 -9.188990590066496 10.787075910078062 -19.976066500144558 10.787075910078062
S 664.4843855106972 336.255026199681 664.4843855106972 298.70002117940925
s 9.188990590066496 -10.787075910078062 19.976066500144558 -10.787075910078062
S 704.4365185109864 261.14501615913747 704.4365185109864 298.70002117940925
z" fill="none" stroke="none"></path>
        <circle cx="0" cy="0" r="5.43400997835128" fill="#d9dbee" opacity="0.9">
            <animateMotion begin="-0.6565224555473148s" dur="10s" repeatCount="indefinite">
                <mpath xlink:href="#path28"></mpath>
            </animateMotion>
        </circle><path id="path29" d="M 1093.3522250896158 376.4345952874247
c 0 25.506950028652007 -6.24106224105315 7.32646436993196 -13.56752661098511 7.32646436993196
S 1066.2171718676454 401.9415453160767 1066.2171718676454 376.4345952874247
s 6.24106224105315 -7.32646436993196 13.56752661098511 -7.32646436993196
S 1093.3522250896158 350.9276452587727 1093.3522250896158 376.4345952874247
z" fill="none" stroke="none"></path>
        <circle cx="0" cy="0" r="7.510359198652533" fill="#3b4368" opacity="0.9">
            <animateMotion begin="-1.0278957429088087s" dur="10s" repeatCount="indefinite">
                <mpath xlink:href="#path29"></mpath>
            </animateMotion>
        </circle><path id="path30" d="M 653.4179475134022 628.7404127535614
c 0 37.202830154919404 -9.102820144288788 10.685919299817275 -19.788739444106064 10.685919299817275
S 613.8404686251899 665.9432429084808 613.8404686251899 628.7404127535614
s 9.102820144288788 -10.685919299817275 19.788739444106064 -10.685919299817275
S 653.4179475134022 591.537582598642 653.4179475134022 628.7404127535614
z" fill="none" stroke="none"></path>
        <circle cx="0" cy="0" r="6.770800383895525" fill="#3b4368" opacity="0.9">
            <animateMotion begin="-2.965682905512481s" dur="10s" repeatCount="indefinite">
                <mpath xlink:href="#path30"></mpath>
            </animateMotion>
        </circle><path id="path31" d="M 344.782404742935 215.30560710936618
c 0 30.10655910043008 -7.366498503296721 8.647628677783109 -16.01412718107983 8.647628677783109
S 312.7541503807753 245.41216620979625 312.7541503807753 215.30560710936618
s 7.366498503296721 -8.647628677783109 16.01412718107983 -8.647628677783109
S 344.782404742935 185.1990480089361 344.782404742935 215.30560710936618
z" fill="none" stroke="none"></path>
        <circle cx="0" cy="0" r="5.980887875414469" fill="#b3b7e2" opacity="0.9">
            <animateMotion begin="-9.81887217168383s" dur="10s" repeatCount="indefinite">
                <mpath xlink:href="#path31"></mpath>
            </animateMotion>
        </circle><path id="path32" d="M 489.80196126186115 655.1588217064161
c 0 21.66634607848931 -5.301339997928235 6.223312171480972 -11.524652169409206 6.223312171480972
S 466.75265692304276 676.8251677849054 466.75265692304276 655.1588217064161
s 5.301339997928235 -6.223312171480972 11.524652169409206 -6.223312171480972
S 489.80196126186115 633.4924756279269 489.80196126186115 655.1588217064161
z" fill="none" stroke="none"></path>
        <circle cx="0" cy="0" r="7.437964287683473" fill="#b3b7e2" opacity="0.9">
            <animateMotion begin="-2.265774821499653s" dur="10s" repeatCount="indefinite">
                <mpath xlink:href="#path32"></mpath>
            </animateMotion>
        </circle><path id="path33" d="M 1057.0744459467319 261.51940138116146
c 0 23.739917013410636 -5.808703099026006 6.818912333639226 -12.62761543266523 6.818912333639226
S 1031.8192150814016 285.2593183945721 1031.8192150814016 261.51940138116146
s 5.808703099026006 -6.818912333639226 12.62761543266523 -6.818912333639226
S 1057.0744459467319 237.77948436775083 1057.0744459467319 261.51940138116146
z" fill="none" stroke="none"></path>
        <circle cx="0" cy="0" r="6.429290922806165" fill="#b3b7e2" opacity="0.9">
            <animateMotion begin="-1.3307364045205183s" dur="10s" repeatCount="indefinite">
                <mpath xlink:href="#path33"></mpath>
            </animateMotion>
        </circle><path id="path34" d="M 809.9266164128258 491.2321970464936
c 0 37.509172276054485 -9.17777619520482 10.773911185675225 -19.951687380880042 10.773911185675225
S 770.0232416510657 528.741369322548 770.0232416510657 491.2321970464936
s 9.17777619520482 -10.773911185675225 19.951687380880042 -10.773911185675225
S 809.9266164128258 453.7230247704391 809.9266164128258 491.2321970464936
z" fill="none" stroke="none"></path>
        <circle cx="0" cy="0" r="6.081912611289894" fill="#93dbe9" opacity="0.9">
            <animateMotion begin="-5.657586476251922s" dur="10s" repeatCount="indefinite">
                <mpath xlink:href="#path34"></mpath>
            </animateMotion>
        </circle><path id="path35" d="M 990.6335136636318 632.0986184192255
c 0 28.83167399284369 -7.054558530163881 8.281438274540209 -15.335996804704092 8.281438274540209
S 959.9615200542236 660.9302924120692 959.9615200542236 632.0986184192255
s 7.054558530163881 -8.281438274540209 15.335996804704092 -8.281438274540209
S 990.6335136636318 603.2669444263819 990.6335136636318 632.0986184192255
z" fill="none" stroke="none"></path>
        <circle cx="0" cy="0" r="5.286206101183712" fill="#93dbe9" opacity="0.9">
            <animateMotion begin="-0.18648759839346551s" dur="10s" repeatCount="indefinite">
                <mpath xlink:href="#path35"></mpath>
            </animateMotion>
        </circle><path id="path36" d="M 173.6869675312413 491.5634279367999
c 0 27.206642784832546 -6.656944511182431 7.814673991388072 -14.471618502570502 7.814673991388072
S 144.7437305261003 518.7700707216325 144.7437305261003 491.5634279367999
s 6.656944511182431 -7.814673991388072 14.471618502570502 -7.814673991388072
S 173.6869675312413 464.35678515196736 173.6869675312413 491.5634279367999
z" fill="none" stroke="none"></path>
        <circle cx="0" cy="0" r="7.001848356298244" fill="#b3b7e2" opacity="0.9">
            <animateMotion begin="-9.406948502266541s" dur="10s" repeatCount="indefinite">
                <mpath xlink:href="#path36"></mpath>
            </animateMotion>
        </circle><path id="path37" d="M 1234.429036408571 236.1857378637615
c 0 30.421316374554827 -7.443513581008095 8.738037682052983 -16.181551263061078 8.738037682052983
S 1202.065933882449 266.6070542383163 1202.065933882449 236.1857378637615
s 7.443513581008095 -8.738037682052983 16.181551263061078 -8.738037682052983
S 1234.429036408571 205.76442148920665 1234.429036408571 236.1857378637615
z" fill="none" stroke="none"></path>
        <circle cx="0" cy="0" r="4.11067750802466" fill="#93dbe9" opacity="0.9">
            <animateMotion begin="-5.703251630427852s" dur="10s" repeatCount="indefinite">
                <mpath xlink:href="#path37"></mpath>
            </animateMotion>
        </circle><path id="path38" d="M 437.70177597681277 234.4441794124585
c 0 30.369536852329276 -7.430844123442268 8.723164840562665 -16.154008964004934 8.723164840562665
S 405.39375804880285 264.8137162647878 405.39375804880285 234.4441794124585
s 7.430844123442268 -8.723164840562665 16.154008964004934 -8.723164840562665
S 437.70177597681277 204.07464256012923 437.70177597681277 234.4441794124585
z" fill="none" stroke="none"></path>
        <circle cx="0" cy="0" r="5.764154872480949" fill="#b3b7e2" opacity="0.9">
            <animateMotion begin="-6.359414617528836s" dur="10s" repeatCount="indefinite">
                <mpath xlink:href="#path38"></mpath>
            </animateMotion>
        </circle><path id="path39" d="M 758.4927221514441 297.83613211798564
c 0 36.193569913528876 -8.85587348948047 10.396025400694466 -19.251898890174935 10.396025400694466
S 719.9889243710942 334.0297020315145 719.9889243710942 297.83613211798564
s 8.85587348948047 -10.396025400694466 19.251898890174935 -10.396025400694466
S 758.4927221514441 261.6425622044568 758.4927221514441 297.83613211798564
z" fill="none" stroke="none"></path>
        <circle cx="0" cy="0" r="5.572929456102383" fill="#b3b7e2" opacity="0.9">
            <animateMotion begin="-4.8454982544855s" dur="10s" repeatCount="indefinite">
                <mpath xlink:href="#path39"></mpath>
            </animateMotion>
        </circle></g>
</svg>
